PathFileType	4	(X/Y/Z)	D:\TRACE\spotREDO_2-26-24\spot_Both_Motion_3_6-platform.trc
DataRate	CameraRate	NumFrames	NumMarkers	Units	OrigDataRate	OrigDataStartFrame	OrigNumFrames
100.00	100.00	      24	5	mm	100.00	1751	      7000
Frame#	Time	Left_Front			Right_Front			Left_Aft			Right_Aft			Post			
		X1	Y1	Z1	X2	Y2	Z2	X3	Y3	Z3	X4	Y4	Z4	X5	Y5	Z5	

1751	17.500	-720.79626	-4.60195	-575.99457	694.43579	4.14545	-490.99335	-791.96332	4.89945	642.63330	777.34564	11.79390	647.94611	-26.22383	620.55969	-983.24316	
1752	17.510	-720.82050	-4.62048	-575.99109	694.47931	4.02518	-491.09531	-792.11151	4.79147	642.61273	777.34644	11.77268	647.95795	-26.19039	620.42010	-983.29553	
1753	17.520	-720.78839	-4.75173	-575.94751	694.48602	4.01944	-491.01868	-792.06879	4.82345	642.56604	777.40417	11.81183	648.00159	-26.22436	620.30273	-983.38165	
1754	17.530	-720.70923	-4.89422	-575.95557	694.48846	3.95082	-491.02283	-791.91339	5.02676	642.56250	777.32605	11.94906	647.94318	-26.20137	620.12866	-983.43115	
1755	17.540	-720.70465	-4.95950	-575.95245	694.43604	3.87618	-491.03363	-791.93805	5.15739	642.54041	777.28302	12.02862	647.97675	-26.21354	620.07825	-983.48401	
1756	17.550	-720.72821	-5.08461	-575.99255	694.33325	3.74182	-491.14542	-792.01532	5.28758	642.53064	777.52814	12.55972	648.24304	-26.09827	619.71332	-983.80322	
1757	17.560	-720.64099	-5.21466	-576.05994	694.35114	3.63050	-491.25449	-792.08374	5.50704	642.39685	777.40979	12.58300	648.17114	-26.11304	619.20160	-984.17249	
1758	17.570	-720.51599	-5.45998	-576.14777	694.26514	3.36130	-491.32327	-792.11499	5.73080	642.31561	777.34558	12.68259	647.89844	-25.83257	618.93555	-984.45667	
1759	17.580	-720.32690	-5.86133	-576.12622	694.49194	2.98473	-491.29520	-792.08752	5.89028	642.22223	777.16608	12.94614	647.67810	-25.66079	618.61243	-984.87769	
1760	17.590	-720.28699	-5.84264	-576.33734	694.49597	2.95050	-491.23288	-792.08905	6.15800	642.09149	777.32623	13.10579	647.67926	-25.96629	618.27844	-985.26727	
1761	17.600	-720.23474	-5.98757	-576.33850	694.58545	2.80955	-491.20349	-792.06903	6.34843	642.01605	777.23633	13.12508	647.55579	-26.07065	618.04987	-985.73712	
1762	17.610	-720.27203	-6.06687	-576.36102	694.51788	2.72056	-491.32205	-792.09747	6.50413	641.92871	777.04724	13.28656	647.50610	-26.16423	617.93701	-985.93250	
1763	17.620	-720.29742	-6.13513	-576.41205	694.58215	2.65167	-491.25568	-792.19238	6.55704	641.96021	777.04333	13.42976	647.44830	-26.18433	617.89935	-985.95746	
1764	17.630	-720.30457	-6.26040	-576.46075	694.47546	2.56647	-491.36975	-792.22198	6.57693	641.91620	777.12939	13.57510	647.41785	-26.14495	617.81348	-985.98706	
1765	17.640	-720.33319	-6.31336	-576.44592	694.48846	2.57003	-491.37625	-792.22064	6.69486	641.97479	777.14026	13.62421	647.37488	-26.07096	617.70947	-986.00793	
1766	17.650	-720.33124	-6.36132	-576.48578	694.40796	2.52502	-491.43182	-792.24371	6.75721	641.95374	777.25281	13.77058	647.35175	-26.03205	617.60504	-986.00598	
1767	17.660	-720.40527	-6.50748	-576.48114	694.39673	2.55884	-491.49023	-792.26758	6.76470	642.03467	777.23962	13.80004	647.34808	-25.68663	617.33154	-985.77039	
1768	17.670	-720.52631	-6.70773	-576.49841	694.25507	2.40018	-491.49963	-792.18903	6.71211	641.89709	777.15173	13.78394	647.32379	-25.85551	617.22809	-985.66974	
1769	17.680	-720.68677	-6.83552	-576.54633	694.08600	2.32043	-491.56165	-792.52948	6.88407	642.05035	777.18219	13.87960	647.32971	-25.99147	617.01312	-985.59851	
1770	17.690	-720.99219	-6.80896	-576.57776	693.84784	2.32629	-491.74805	-792.62653	7.02934	641.94434	777.11615	13.97546	647.30798	-26.18964	616.88007	-985.66846	
1771	17.700	-721.03564	-6.92008	-576.59747	693.69934	2.21299	-491.74097	-792.75305	7.13237	641.91443	777.00665	14.01108	647.22040	-26.36000	616.72711	-985.78894	
1772	17.710	-721.13287	-7.07510	-576.55383	693.59045	2.19127	-491.70624	-792.80023	7.25411	641.91125	776.87701	14.43369	647.26984	-26.54358	616.45392	-986.02051	
1773	17.720	-721.16846	-7.19282	-576.60114	693.53870	1.94838	-491.68466	-792.85846	7.32303	641.85687	776.78912	14.32625	647.17505	-26.65335	616.11676	-986.30481	
1774	17.730	-721.19067	-7.33183	-576.50330	693.43292	1.74071	-491.77939	-792.89899	7.28205	641.76990	776.71790	14.61894	647.17114	-26.80274	616.05847	-986.50891	
